<?xml version="1.0" standalone="no"?><!DOCTYPE svg PUBLIC "-//W3C//DTD SVG 1.1//EN" "http://www.w3.org/Graphics/SVG/1.1/DTD/svg11.dtd"><svg class="icon" width="64px" height="64.00px" viewBox="0 0 1024 1024" version="1.1" xmlns="http://www.w3.org/2000/svg"><path d="M512 512m-447.9 0a447.9 447.9 0 1 0 895.8 0 447.9 447.9 0 1 0-895.8 0Z" fill="#00C785" /><path d="M697.1 375.2c-28.1-31.6-70.1-43.3-107.6-35.1-9.4 2.3-14 10.5-12.9 19.9 2.3 9.4 10.5 14 19.9 12.9 26.9-5.8 57.3 2.3 77.2 24.5 19.9 22.2 25.7 52.6 16.4 79.5-1.2 4.7-1.2 8.2 1.2 12.9 2.3 3.5 5.8 7 9.4 8.2 8.2 2.3 17.5-2.3 21-10.5 10.4-38.7 3.4-80.8-24.6-112.3z m0 0" fill="#FFFFFF" /><path d="M646.8 478c7 2.3 15.2-1.2 17.5-9.4 5.8-18.7 2.3-38.6-11.7-53.8-14-15.2-33.9-21-52.6-17.5-8.2 1.2-12.9 9.4-10.5 16.4 1.2 8.2 9.4 12.9 16.4 10.5 9.4-2.3 18.7 1.2 25.7 8.2 7 7 8.2 17.5 5.8 26.9-2.3 8.2 2.4 16.4 9.4 18.7z m-28 26.9c-5.8-2.3-10.5-3.5-7-10.5 7-17.5 7-32.7 0-43.3-14-19.9-52.6-18.7-95.9 0 0 0-14 5.8-10.5-4.7 7-22.2 5.8-39.7-4.7-50.3-23.4-23.4-86.5 1.2-140.3 54.9-39.7 40.9-63.1 83-63.1 120.4 0 71.3 91.2 114.6 180 114.6 116.9 0 194.1-67.8 194.1-121.6 0-32.6-28.1-51.3-52.6-59.5zM477.3 660.4c-71.3 7-132.1-25.7-136.8-71.3-4.7-46.8 49.1-90 120.4-97 71.3-7 132.1 25.7 136.8 71.3 4.7 46.7-49.1 90-120.4 97z m0 0" fill="#FFFFFF" /><path d="M484.3 527.1c-33.9-9.4-72.5 8.2-86.5 37.4-15.2 30.4 0 64.3 33.9 74.8 35.1 11.7 77.2-5.8 91.2-38.6 14-31.5-3.5-64.2-38.6-73.6z m-25.7 78.4c-7 10.5-21 16.4-32.7 10.5-10.5-4.7-14-17.5-7-28.1 7-10.5 21-15.2 31.6-10.5 11.6 3.5 15.1 16.4 8.1 28.1z m0 0" fill="#FFFFFF" /></svg>