<?xml version="1.0" standalone="no"?><!DOCTYPE svg PUBLIC "-//W3C//DTD SVG 1.1//EN" "http://www.w3.org/Graphics/SVG/1.1/DTD/svg11.dtd"><svg class="icon" width="64px" height="64.00px" viewBox="0 0 1024 1024" version="1.1" xmlns="http://www.w3.org/2000/svg"><path fill="#000000" d="M512 291.42l49.49 100.28a108.767 108.767 0 0 0 81.91 59.5l110.65 16.08-80.06 78.04c-25.66 25-37.36 61.01-31.3 96.31l18.9 110.21-98.96-52.03c-15.55-8.18-33.06-12.5-50.63-12.5s-35.09 4.32-50.63 12.5l-98.97 52.03 18.9-110.2c6.06-35.31-5.64-71.31-31.29-96.31l-80.07-78.05L380.6 451.2a108.757 108.757 0 0 0 81.91-59.52L512 291.42m0-133.23c-11.41 0-22.82 5.95-28.7 17.84L393.65 357.7a32.002 32.002 0 0 1-24.09 17.51l-200.48 29.13c-26.25 3.81-36.73 36.07-17.74 54.58L296.4 600.33a32.005 32.005 0 0 1 9.2 28.32l-34.25 199.67c-3.55 20.68 12.89 37.48 31.54 37.48 4.92 0 10-1.17 14.9-3.75l179.32-94.27c4.66-2.45 9.77-3.68 14.89-3.68 5.11 0 10.23 1.23 14.89 3.68l179.32 94.27c4.9 2.58 9.98 3.75 14.9 3.75 18.64 0 35.08-16.8 31.53-37.48l-34.25-199.67a31.996 31.996 0 0 1 9.2-28.32l145.07-141.41c18.99-18.51 8.51-50.77-17.73-54.58l-200.48-29.13a32.002 32.002 0 0 1-24.09-17.51L540.7 176.03c-5.87-11.89-17.28-17.84-28.7-17.84z"  /></svg>