<?xml version="1.0" standalone="no"?><!DOCTYPE svg PUBLIC "-//W3C//DTD SVG 1.1//EN" "http://www.w3.org/Graphics/SVG/1.1/DTD/svg11.dtd"><svg class="icon" width="64px" height="64.00px" viewBox="0 0 1024 1024" version="1.1" xmlns="http://www.w3.org/2000/svg"><path fill="#000000" d="M512 216.436364C349.090909 216.436364 216.436364 349.090909 216.436364 512S349.090909 809.890909 512 809.890909 809.890909 674.909091 809.890909 512 674.909091 216.436364 512 216.436364z m0 558.545454c-144.290909 0-262.981818-116.363636-262.981818-262.981818s116.363636-262.981818 262.981818-262.981818 262.981818 116.363636 262.981818 262.981818S656.290909 774.981818 512 774.981818z"  /><path fill="#000000" d="M530.618182 505.018182V325.818182c0-9.309091-6.981818-18.618182-18.618182-18.618182s-18.618182 6.981818-18.618182 18.618182v186.181818c0 2.327273 0 4.654545 2.327273 6.981818 0 2.327273 2.327273 4.654545 4.654545 4.654546l93.090909 93.090909c2.327273 2.327273 6.981818 4.654545 11.636364 4.654545s9.309091-2.327273 11.636364-4.654545c6.981818-6.981818 6.981818-18.618182 0-25.6l-86.109091-86.109091z"  /></svg>